# xmcd
#
# Track frame offsets:
#	150
#	13383
#	21474
#	35341
#	50146
#	64245
#	81134
#	96539
#	111370
#	127944
#
# Disc length: 1888 seconds
#
# Revision: 1
# Processed by: cddbd v1.5.2PL0 Copyright (c) Steve Scherf et al.
# Submitted via: audiograbber 1.83.01
#
DISCID=8f075e0a
DTITLE=International Music Express - IME 10
DYEAR=1900
DGENRE=
TTITLE0=Mile High Honey  - Royal Wade Kimes
TTITLE1=Wide Awake  - Lloyd Green
TTITLE2=A Bottle Of Wine And Patsy Cline  - Sara Miller
TTITLE3=Fool By Your Side  - David Ervin
TTITLE4=He Called Me Baby  - Sandra J Verdine
TTITLE5=Learning To Live Again  - Andy Dean
TTITLE6=No One Mends A Broken Heart Like You Do  - Raymond Boudreaux
TTITLE7=She´s Breaking Up I´m Breaking Down  - Bobby G. Rice
TTITLE8=What Heaven Has Sent  - Billy Joe Burnette
TTITLE9=When A Tingle Becoms A Chill  - Lori Winfree
EXTD=
EXTT0=
EXTT1=
EXTT2=
EXTT3=
EXTT4=
EXTT5=
EXTT6=
EXTT7=
EXTT8=
EXTT9=
PLAYORDER=
